<svg xmlns="http://www.w3.org/2000/svg" viewBox="0 0 512 512" role="img" aria-label="WheelDraw">
  <defs>
    <filter id="shadow" x="-20%" y="-20%" width="140%" height="140%">
      <feDropShadow dx="0" dy="18" stdDeviation="18" flood-color="#000000" flood-opacity="0.34"/>
    </filter>
  </defs>
  <g filter="url(#shadow)">
    <circle cx="256" cy="276" r="192" fill="#fbbf24"/>
    <circle cx="256" cy="276" r="170" fill="#0a0a1a"/>
    <path d="M256 276 L256 106 A170 170 0 0 1 403.22 191 Z" fill="#d946ef"/>
    <path d="M256 276 L403.22 191 A170 170 0 0 1 403.22 361 Z" fill="#7c3aed"/>
    <path d="M256 276 L403.22 361 A170 170 0 0 1 256 446 Z" fill="#06b6d4"/>
    <path d="M256 276 L256 446 A170 170 0 0 1 108.78 361 Z" fill="#fbbf24"/>
    <path d="M256 276 L108.78 361 A170 170 0 0 1 108.78 191 Z" fill="#fb7185"/>
    <path d="M256 276 L108.78 191 A170 170 0 0 1 256 106 Z" fill="#4f46e5"/>
    <circle cx="256" cy="276" r="58" fill="#0a0a1a" stroke="#fbbf24" stroke-width="18"/>
    <circle cx="256" cy="276" r="18" fill="#fbbf24"/>
    <path d="M210 42 H302 L256 128 Z" fill="#fbbf24" stroke="#f59e0b" stroke-width="10" stroke-linejoin="round"/>
    <circle cx="256" cy="276" r="171" fill="none" stroke="#fef3c7" stroke-width="4" opacity="0.5"/>
  </g>
</svg>
